<svg viewBox="0 0 40 40" fill="none" xmlns="http://www.w3.org/2000/svg">
<path d="M34 10H32V0H8V10H6C4.4087 10 2.88258 10.6321 1.75736 11.7574C0.632141 12.8826 0 14.4087 0 16V30C0 31.0609 0.421427 32.0783 1.17157 32.8284C1.92172 33.5786 2.93913 34 4 34H8V40H32V34H36C37.0609 34 38.0783 33.5786 38.8284 32.8284C39.5786 32.0783 40 31.0609 40 30V16C40 14.4087 39.3679 12.8826 38.2426 11.7574C37.1174 10.6321 35.5913 10 34 10ZM12 4H28V10H12V4ZM12 36V28H28V36H12ZM34 20H26V16H34V20Z" fill="black"/>
</svg>
