<svg width="34" height="36" viewBox="0 0 34 36" fill="none" xmlns="http://www.w3.org/2000/svg">
<path d="M0 18C0 21.308 2.692 24 6 24C7.588 24 9.024 23.37 10.098 22.36L22.08 29.208C22.044 29.468 22 29.728 22 30C22 33.308 24.692 36 28 36C31.308 36 34 33.308 34 30C34 26.692 31.308 24 28 24C26.412 24 24.976 24.63 23.902 25.64L11.92 18.794C11.956 18.532 12 18.272 12 18C12 17.728 11.956 17.468 11.92 17.206L23.902 10.36C24.976 11.37 26.412 12 28 12C31.308 12 34 9.308 34 6C34 2.692 31.308 0 28 0C24.692 0 22 2.692 22 6C22 6.272 22.044 6.532 22.08 6.794L10.098 13.64C8.99201 12.5894 7.52547 12.0025 6 12C2.692 12 0 14.692 0 18Z" fill="black"/>
</svg>
