<svg width="48" height="45" viewBox="0 0 48 45" fill="none" xmlns="http://www.w3.org/2000/svg">
<path d="M17.1768 32.8861H0V25.6102H3.30721V7.27586H0V0H16.5154V7.27586H13.8903V14.7584L19.3472 7.27586V0H32.2246V7.27586H29.3721L22.8197 15.2338V15.5232C25.0521 15.5232 26.8022 15.9091 28.0699 16.6807C29.3377 17.4386 29.9716 18.7615 29.9716 20.6494V23.9979C29.9716 24.4251 30.0887 24.8041 30.323 25.1348C30.571 25.4517 30.9086 25.6102 31.3358 25.6102V32.8861H26.1269C21.4969 32.8861 19.1818 30.7708 19.1818 26.5404V22.9438C19.1818 22.241 18.9544 21.552 18.4997 20.8768C18.045 20.1878 17.5075 19.8433 16.8874 19.8433H13.8903V25.6102H17.1768V32.8861Z" fill="white"/>
<path d="M34.7918 44.6142H19.558V38.3512H22.2244V20.6577H19.558V15.1181L32.1254 13.8365V17.3504C32.8282 16.3721 33.7377 15.5453 34.8538 14.87C35.97 14.181 37.2791 13.8365 38.7812 13.8365C40.7517 13.8365 42.4329 14.3464 43.8247 15.3661C45.2164 16.3858 46.2568 17.757 46.9458 19.4795C47.6486 21.202 48 23.1174 48 25.2257C48 27.3203 47.6555 29.2564 46.9665 31.034C46.2775 32.7841 45.2302 34.1828 43.8247 35.23C42.4329 36.2635 40.7379 36.7803 38.7398 36.7803C37.348 36.7803 36.0803 36.5116 34.9365 35.9742C33.8066 35.423 32.8695 34.7477 32.1254 33.9485V38.3926H34.7918V44.6142ZM35.1019 30.7446C36.3421 30.7446 37.2585 30.2486 37.851 29.2564C38.4435 28.2642 38.7398 26.962 38.7398 25.3498C38.7398 23.6962 38.416 22.3733 37.7683 21.3811C37.1207 20.3889 36.2732 19.8929 35.2259 19.8929C34.5231 19.8929 33.8892 20.072 33.3243 20.4303C32.7593 20.7748 32.3597 21.2295 32.1254 21.7945V28.967C32.7455 30.1521 33.7377 30.7446 35.1019 30.7446Z" fill="#F16765"/>
</svg>
